<svg xmlns="http://www.w3.org/2000/svg" viewBox="0 0 128 128" role="img" aria-labelledby="title">
  <title id="title">DUONERA</title>
  <defs>
    <linearGradient id="gold" x1="18" y1="16" x2="108" y2="112" gradientUnits="userSpaceOnUse">
      <stop offset="0" stop-color="#f7df94"/>
      <stop offset=".46" stop-color="#d7a93c"/>
      <stop offset="1" stop-color="#9b6c18"/>
    </linearGradient>
    <radialGradient id="pearl" cx=".34" cy=".27" r=".78">
      <stop offset="0" stop-color="#ffffff"/>
      <stop offset=".55" stop-color="#f1eadc"/>
      <stop offset="1" stop-color="#cbbd9f"/>
    </radialGradient>
  </defs>
  <circle cx="64" cy="64" r="61" fill="#0c0c0a"/>
  <circle cx="64" cy="64" r="56.5" fill="none" stroke="url(#gold)" stroke-width="2"/>
  <path d="M61 27C42 29 28 44 28 63c0 19 14 34 33 38" fill="none" stroke="url(#gold)" stroke-width="6" stroke-linecap="round"/>
  <path d="M67 27c19 2 33 17 33 36 0 19-14 34-33 38" fill="none" stroke="url(#gold)" stroke-width="6" stroke-linecap="round"/>
  <path d="M46 50c4 11 10 17 18 21 8-4 14-10 18-21" fill="none" stroke="url(#gold)" stroke-width="3.2" stroke-linecap="round"/>
  <circle cx="64" cy="78" r="12.5" fill="url(#pearl)" stroke="url(#gold)" stroke-width="2.5"/>
  <path d="M64 15l3.2 6.8L74 25l-6.8 3.2L64 35l-3.2-6.8L54 25l6.8-3.2z" fill="url(#gold)"/>
</svg>
