<svg xmlns="http://www.w3.org/2000/svg" viewBox="0 0 520 900" fill="none">
  <path d="M420 888C327 657 308 438 348 148" stroke="#d8ae78" stroke-width="2.4" opacity=".45"/>
  <path d="M342 590c82-48 132-125 150-216M344 483c-98-47-151-124-174-230M351 361c68-42 110-96 132-170" stroke="#d8ae78" stroke-width="2" opacity=".38"/>
  <g stroke="#d8ae78" stroke-width="2" fill="#fffaf6" opacity=".72">
    <path d="M462 323c-74-11-101-87-44-132 36-28 82-12 92 29 7 29-10 65-48 103Z"/>
    <path d="M399 212c-60-43-54-121 16-148 44-17 82 12 77 54-4 29-34 60-93 94Z"/>
    <path d="M332 288c-73-18-93-96-31-135 39-25 83-4 89 38 4 29-17 62-58 97Z"/>
    <path d="M305 421c-76 8-119-60-76-119 27-37 77-36 99 1 15 26 7 65-23 118Z"/>
    <path d="M407 470c-62-38-60-114 7-144 42-19 83 8 79 50-3 29-31 62-86 94Z"/>
  </g>
  <g fill="#cda15d" opacity=".55">
    <circle cx="460" cy="520" r="4"/><circle cx="433" cy="552" r="3"/><circle cx="485" cy="580" r="5"/><circle cx="397" cy="612" r="2.5"/><circle cx="448" cy="652" r="3.5"/>
  </g>
</svg>
