<svg width="520" height="120" viewBox="0 0 520 120" fill="none" xmlns="http://www.w3.org/2000/svg">
  <g transform="translate(4,8)">
    <path d="M46 8C27 8 12 23 12 42c0 24 20 41 38 57 2 2 5 2 7 0 18-16 38-33 38-57C95 23 80 8 61 8c-6 0-12 2-16 6-5-4-10-6-16-6Z" fill="#7C2237"/>
    <path d="M53 29c-11 0-20 9-20 20 0 14 12 23 22 32 1 1 3 1 4 0 10-9 22-18 22-32 0-11-9-20-20-20-4 0-7 1-10 4-3-3-6-4-10-4Z" fill="#F7F2EC"/>
    <circle cx="53" cy="51" r="8" fill="#7C2237"/>
  </g>
  <text x="118" y="67" fill="#171315" font-family="Georgia, 'Times New Roman', serif" font-size="50" letter-spacing="1">DUONERA</text>
  <text x="121" y="96" fill="#7C2237" font-family="Arial, sans-serif" font-size="15" font-weight="700" letter-spacing="6">ONE</text>
</svg>
